<svg width="24" height="25" viewBox="0 0 24 25" fill="none" xmlns="http://www.w3.org/2000/svg">
<path d="M21.543 7.16109C22 8.94309 22 12.6631 22 12.6631C22 12.6631 22 16.3831 21.543 18.1651C21.289 19.1501 20.546 19.9251 19.605 20.1871C17.896 20.6631 12 20.6631 12 20.6631C12 20.6631 6.107 20.6631 4.395 20.1871C3.45 19.9211 2.708 19.1471 2.457 18.1651C2 16.3831 2 12.6631 2 12.6631C2 12.6631 2 8.94309 2.457 7.16109C2.711 6.17609 3.454 5.40109 4.395 5.13909C6.107 4.66309 12 4.66309 12 4.66309C12 4.66309 17.896 4.66309 19.605 5.13909C20.55 5.40509 21.292 6.17909 21.543 7.16109ZM10 16.1631L16 12.6631L10 9.16309V16.1631Z" fill="#7B29DD"/>
</svg>
