<svg width="24" height="25" viewBox="0 0 24 25" fill="none" xmlns="http://www.w3.org/2000/svg">
<path d="M22.162 6.31901C21.3986 6.65671 20.589 6.87849 19.76 6.97701C20.6337 6.45445 21.2877 5.63203 21.6 4.66301C20.78 5.15101 19.881 5.49301 18.944 5.67801C18.3146 5.00459 17.4804 4.55798 16.5709 4.4076C15.6615 4.25722 14.7279 4.4115 13.9153 4.84647C13.1026 5.28143 12.4564 5.9727 12.0771 6.81281C11.6978 7.65291 11.6067 8.59479 11.818 9.49201C10.1551 9.40867 8.52832 8.97654 7.04328 8.22368C5.55823 7.47082 4.24812 6.41406 3.19799 5.12201C2.82628 5.76046 2.63095 6.48624 2.63199 7.22501C2.63199 8.67501 3.36999 9.95601 4.49199 10.706C3.828 10.6851 3.17862 10.5058 2.59799 10.183V10.235C2.59819 11.2007 2.93236 12.1366 3.54384 12.8841C4.15532 13.6315 5.00647 14.1445 5.95299 14.336C5.33661 14.503 4.6903 14.5277 4.06299 14.408C4.32986 15.2392 4.85 15.9662 5.55058 16.4871C6.25117 17.008 7.09712 17.2968 7.96999 17.313C7.10247 17.9943 6.10917 18.498 5.04687 18.7952C3.98458 19.0924 2.87412 19.1773 1.77899 19.045C3.69069 20.2744 5.91609 20.9271 8.18899 20.925C15.882 20.925 20.089 14.552 20.089 9.02501C20.089 8.84501 20.084 8.66301 20.076 8.48501C20.8949 7.89318 21.6016 7.16003 22.163 6.32001L22.162 6.31901Z" fill="#7B29DD"/>
</svg>
