<svg width="24" height="25" viewBox="0 0 24 25" fill="none" xmlns="http://www.w3.org/2000/svg">
<path d="M12 2.66333C14.717 2.66333 15.056 2.67333 16.122 2.72333C17.187 2.77333 17.912 2.94033 18.55 3.18833C19.21 3.44233 19.766 3.78633 20.322 4.34133C20.8305 4.84123 21.224 5.44592 21.475 6.11333C21.722 6.75033 21.89 7.47633 21.94 8.54133C21.987 9.60733 22 9.94633 22 12.6633C22 15.3803 21.99 15.7193 21.94 16.7853C21.89 17.8503 21.722 18.5753 21.475 19.2133C21.2247 19.8811 20.8311 20.4859 20.322 20.9853C19.822 21.4937 19.2173 21.8871 18.55 22.1383C17.913 22.3853 17.187 22.5533 16.122 22.6033C15.056 22.6503 14.717 22.6633 12 22.6633C9.283 22.6633 8.944 22.6533 7.878 22.6033C6.813 22.5533 6.088 22.3853 5.45 22.1383C4.78233 21.8878 4.17753 21.4943 3.678 20.9853C3.16941 20.4855 2.77593 19.8808 2.525 19.2133C2.277 18.5763 2.11 17.8503 2.06 16.7853C2.013 15.7193 2 15.3803 2 12.6633C2 9.94633 2.01 9.60733 2.06 8.54133C2.11 7.47533 2.277 6.75133 2.525 6.11333C2.77524 5.44551 3.1688 4.84065 3.678 4.34133C4.17767 3.83256 4.78243 3.43906 5.45 3.18833C6.088 2.94033 6.812 2.77333 7.878 2.72333C8.944 2.67633 9.283 2.66333 12 2.66333ZM12 7.66333C10.6739 7.66333 9.40215 8.19011 8.46447 9.1278C7.52678 10.0655 7 11.3372 7 12.6633C7 13.9894 7.52678 15.2612 8.46447 16.1989C9.40215 17.1365 10.6739 17.6633 12 17.6633C13.3261 17.6633 14.5979 17.1365 15.5355 16.1989C16.4732 15.2612 17 13.9894 17 12.6633C17 11.3372 16.4732 10.0655 15.5355 9.1278C14.5979 8.19011 13.3261 7.66333 12 7.66333ZM18.5 7.41333C18.5 7.08181 18.3683 6.76387 18.1339 6.52945C17.8995 6.29503 17.5815 6.16333 17.25 6.16333C16.9185 6.16333 16.6005 6.29503 16.3661 6.52945C16.1317 6.76387 16 7.08181 16 7.41333C16 7.74485 16.1317 8.06279 16.3661 8.29721C16.6005 8.53163 16.9185 8.66333 17.25 8.66333C17.5815 8.66333 17.8995 8.53163 18.1339 8.29721C18.3683 8.06279 18.5 7.74485 18.5 7.41333ZM12 9.66333C12.7956 9.66333 13.5587 9.9794 14.1213 10.542C14.6839 11.1046 15 11.8677 15 12.6633C15 13.459 14.6839 14.222 14.1213 14.7847C13.5587 15.3473 12.7956 15.6633 12 15.6633C11.2044 15.6633 10.4413 15.3473 9.87868 14.7847C9.31607 14.222 9 13.459 9 12.6633C9 11.8677 9.31607 11.1046 9.87868 10.542C10.4413 9.9794 11.2044 9.66333 12 9.66333Z" fill="#7B29DD"/>
</svg>
