<svg width="184" height="34" viewBox="0 0 184 34" fill="none" xmlns="http://www.w3.org/2000/svg">
<path d="M0.26 26L0.05 24.88C0.586667 24.6233 1.14667 24.4017 1.73 24.215C2.33667 24.005 2.93167 23.8183 3.515 23.655L3.55 26H0.26ZM3.9 26L4.005 23.795L8.835 24.355L8.8 26H3.9ZM20.07 26L19.86 24.88C20.3967 24.6233 20.9567 24.4017 21.54 24.215C22.1467 24.005 22.7417 23.8183 23.325 23.655L23.36 26H20.07ZM24.55 26L24.655 23.795L29.485 24.355L29.45 26H24.55ZM3.095 26L3.9 3.25H8.135L5.44 4.93L6.21 11.3L5.86 26H3.095ZM12.93 26.245L5.195 4.825L8.135 3.25L15.38 23.445L15.975 25.44L12.93 26.245ZM15.975 25.44L14.05 24.74L21.68 3.25L23.5 4.545L15.975 25.44ZM22.905 26L22.66 11.3L23.22 4.685L21.68 3.25H25.67L26.055 26H22.905ZM5.895 5.455L1.065 4.895L1.1 3.25H6L5.895 5.455ZM24.83 5.595L24.795 3.25H28.085L28.295 4.37C27.7817 4.60333 27.2217 4.825 26.615 5.035C26.0083 5.22167 25.4133 5.40833 24.83 5.595ZM38.5924 26.525C37.169 26.525 35.9207 26.2917 34.8474 25.825C33.774 25.3583 32.8757 24.7283 32.1524 23.935C31.429 23.1417 30.8924 22.2433 30.5424 21.24C30.1924 20.2367 30.0174 19.1867 30.0174 18.09C30.0174 16.9233 30.204 15.7917 30.5774 14.695C30.974 13.5983 31.5224 12.6183 32.2224 11.755C32.9224 10.8917 33.7624 10.2033 34.7424 9.69C35.7457 9.17667 36.8424 8.92 38.0324 8.92C38.9424 8.92 39.7824 9.07167 40.5524 9.375C41.3224 9.67833 41.9874 10.11 42.5474 10.67C43.1307 11.2067 43.5741 11.8483 43.8774 12.595C44.1807 13.3417 44.3207 14.1583 44.2974 15.045L41.3224 16.27C41.4391 15.2433 41.2874 14.3217 40.8674 13.505C40.4474 12.6883 39.829 12.0583 39.0124 11.615C38.219 11.1717 37.3091 10.985 36.2824 11.055C35.559 11.4283 34.9757 11.965 34.5324 12.665C34.1124 13.365 33.7974 14.1233 33.5874 14.94C33.4007 15.7567 33.3074 16.5617 33.3074 17.355C33.3074 18.7317 33.564 19.91 34.0774 20.89C34.5907 21.8467 35.279 22.5817 36.1424 23.095C37.0057 23.6083 37.974 23.865 39.0474 23.865C39.7474 23.865 40.4707 23.76 41.2174 23.55C41.964 23.34 42.734 23.06 43.5274 22.71L44.0524 24.215L38.5924 26.525ZM42.3024 17.005L33.0274 16.83V15.01L43.9124 14.52L44.2974 15.045L42.3024 17.005ZM54.1116 26.665C53.2949 26.665 52.4549 26.5717 51.5916 26.385C50.7516 26.1983 49.8766 25.9183 48.9666 25.545L50.5416 22.43C50.8449 22.7567 51.2883 23.095 51.8716 23.445C52.4549 23.795 53.1666 24.0633 54.0066 24.25C54.8699 24.4133 55.8266 24.4133 56.8766 24.25C57.8333 23.6667 58.5683 22.7917 59.0816 21.625C59.5949 20.435 59.8516 19.21 59.8516 17.95C59.8516 16.9 59.6649 15.92 59.2916 15.01C58.9416 14.0767 58.4399 13.33 57.7866 12.77C57.1566 12.1867 56.4099 11.895 55.5466 11.895C54.7066 11.895 53.8316 12.1517 52.9216 12.665C52.0349 13.155 51.1483 13.715 50.2616 14.345L49.9466 12.7L55.3716 9.165C56.5383 8.90833 57.5883 8.955 58.5216 9.305C59.4783 9.655 60.2949 10.2267 60.9716 11.02C61.6716 11.79 62.2083 12.7117 62.5816 13.785C62.9549 14.8583 63.1416 16.0133 63.1416 17.25C63.1416 18.6033 62.9199 19.8517 62.4766 20.995C62.0333 22.1383 61.4033 23.1417 60.5866 24.005C59.7933 24.845 58.8483 25.4983 57.7516 25.965C56.6549 26.4317 55.4416 26.665 54.1116 26.665ZM46.1666 33.14L45.9916 31.985C46.4116 31.775 46.9716 31.5533 47.6716 31.32C48.3949 31.0867 48.9783 30.9117 49.4216 30.795L48.9316 33.14H46.1666ZM50.8216 33.14L50.8566 30.795C51.4633 30.8417 52.0816 30.9117 52.7116 31.005C53.3649 31.1217 53.8899 31.2733 54.2866 31.46L54.0766 33.14H50.8216ZM48.3016 33.14V10.355L50.0516 9.06L51.4166 10.285V33.14H48.3016ZM45.7116 11.79L45.2916 10.145C45.9916 9.81833 46.7733 9.56167 47.6366 9.375C48.5233 9.18833 49.3283 9.08333 50.0516 9.06L50.5066 9.935L48.9666 11.545L45.7116 11.79ZM67.0671 26V1.57L68.7821 0.274999L70.1821 1.5V26H67.0671ZM77.7421 26V15.64C77.7421 14.2167 77.5204 13.2367 77.0771 12.7C76.6337 12.14 76.1087 11.86 75.5021 11.86C75.0354 11.86 74.4754 12 73.8221 12.28C73.1921 12.5367 72.5387 12.8633 71.8621 13.26C71.1854 13.6567 70.5671 14.0767 70.0071 14.52L69.3771 13.05C70.4737 12.28 71.5354 11.6033 72.5621 11.02C73.6121 10.4133 74.5337 9.935 75.3271 9.585C76.1437 9.235 76.7621 9.06 77.1821 9.06C77.6254 9.13 78.0571 9.29333 78.4771 9.55C78.8971 9.80667 79.2704 10.0983 79.5971 10.425C79.9471 10.7517 80.2037 11.0783 80.3671 11.405C80.4837 11.615 80.5771 11.8833 80.6471 12.21C80.7171 12.5367 80.7637 12.9683 80.7871 13.505C80.8337 14.0183 80.8571 14.6833 80.8571 15.5V26H77.7421ZM64.4421 3.005L64.0221 1.36C64.7221 1.03333 65.5037 0.776665 66.3671 0.59C67.2537 0.403333 68.0587 0.298333 68.7821 0.274999L69.2371 1.15L67.6971 2.76L64.4421 3.005ZM64.6521 26L64.4771 24.845C64.8971 24.635 65.4571 24.4133 66.1571 24.18C66.8804 23.9467 67.4637 23.7717 67.9071 23.655L67.4171 26H64.6521ZM68.9921 26L69.0271 23.655C69.6337 23.7017 70.2521 23.7833 70.8821 23.9C71.5354 23.9933 72.0604 24.1333 72.4571 24.32L72.2471 26H68.9921ZM75.9221 26L75.7471 24.845C76.1671 24.635 76.7271 24.4133 77.4271 24.18C78.1504 23.9467 78.7337 23.7717 79.1771 23.655L78.6871 26H75.9221ZM79.9121 26L79.9471 23.655C80.5537 23.7017 81.1721 23.7833 81.8021 23.9C82.4554 23.9933 82.9804 24.1333 83.3771 24.32L83.1671 26H79.9121ZM97.2455 26.525C96.9889 26.5017 96.6739 26.3383 96.3005 26.035C95.9272 25.755 95.5772 25.3933 95.2505 24.95C94.9239 24.5067 94.7022 24.0633 94.5855 23.62V23.13V14.835C94.5855 13.7383 94.4572 12.9217 94.2005 12.385C93.9439 11.825 93.5005 11.3933 92.8705 11.09C92.2172 11.1133 91.5055 11.1833 90.7355 11.3C89.9889 11.4167 89.3822 11.545 88.9155 11.685L88.6355 15.325L86.7805 15.465C86.4772 14.8817 86.2439 14.2167 86.0805 13.47C85.9172 12.7233 85.8122 11.9883 85.7655 11.265C86.3022 10.9617 86.9322 10.67 87.6555 10.39C88.4022 10.0867 89.1605 9.81833 89.9305 9.585C90.7005 9.32833 91.4122 9.13 92.0655 8.99C92.7189 8.82667 93.2205 8.745 93.5705 8.745C94.0839 8.745 94.5855 8.885 95.0755 9.165C95.5889 9.42167 96.0439 9.74833 96.4405 10.145C96.8605 10.5183 97.1522 10.8683 97.3155 11.195C97.4789 11.4983 97.5839 11.8717 97.6305 12.315C97.7005 12.7583 97.7355 13.5983 97.7355 14.835V22.99C97.7355 23.2467 97.8172 23.4333 97.9805 23.55C98.1672 23.6433 98.3889 23.69 98.6455 23.69C98.9022 23.69 99.1705 23.655 99.4505 23.585C99.7539 23.515 100.022 23.445 100.256 23.375L100.781 24.915L97.2455 26.525ZM90.8055 26.49C89.5222 26.63 88.4722 26.49 87.6555 26.07C86.8622 25.65 86.2672 25.1017 85.8705 24.425C85.4972 23.725 85.3105 23.0367 85.3105 22.36C85.3105 21.6833 85.4972 21.0183 85.8705 20.365C86.2672 19.6883 86.8972 19.105 87.7605 18.615L95.4605 18.405L95.3205 20.295L94.7605 20.26C94.1072 20.19 93.4189 20.1667 92.6955 20.19C91.9955 20.19 91.3305 20.26 90.7005 20.4C90.0939 20.5167 89.5922 20.7383 89.1955 21.065C88.7989 21.3683 88.6005 21.8 88.6005 22.36C88.6005 22.6633 88.6705 22.9667 88.8105 23.27C88.9739 23.55 89.2072 23.7833 89.5105 23.97C90.1872 23.9933 90.8872 23.9117 91.6105 23.725C92.3339 23.5383 92.9989 23.3167 93.6055 23.06C94.2355 22.8033 94.7255 22.5933 95.0755 22.43V23.9L90.8055 26.49ZM104.87 26V1.57L106.585 0.274999L107.985 1.5V26H104.87ZM102.385 26L102.21 24.845C102.63 24.635 103.19 24.4133 103.89 24.18C104.613 23.9467 105.196 23.7717 105.64 23.655L105.15 26H102.385ZM107.04 26L107.075 23.655C107.681 23.7017 108.3 23.7833 108.93 23.9C109.583 23.9933 110.108 24.1333 110.505 24.32L110.295 26H107.04ZM102.245 3.005L101.825 1.36C102.525 1.03333 103.306 0.776665 104.17 0.59C105.056 0.403333 105.861 0.298333 106.585 0.274999L107.04 1.15L105.5 2.76L102.245 3.005ZM118.375 26.525C117.885 26.5483 117.36 26.42 116.8 26.14C116.263 25.86 115.796 25.4867 115.4 25.02C115.026 24.5533 114.84 24.075 114.84 23.585V10.075L116.31 5.385H117.955V10.355V21.73C117.955 22.43 118.036 22.92 118.2 23.2C118.363 23.48 118.666 23.62 119.11 23.62C119.553 23.62 120.066 23.5383 120.65 23.375C121.256 23.1883 121.816 23.0017 122.33 22.815L122.925 24.425L118.375 26.525ZM112.67 12.28L112.425 10.6C113.125 10.2733 113.801 10.04 114.455 9.9C115.131 9.76 115.773 9.655 116.38 9.585L117.185 10.46L115.645 12.21L112.67 12.28ZM115.47 12.315V9.62H122.855L122.995 10.635L121.35 12.315H115.47ZM127.292 26V10.355L129.007 9.06L130.407 10.285V26H127.292ZM124.807 26L124.632 24.845C125.052 24.635 125.612 24.4133 126.312 24.18C127.035 23.9467 127.618 23.7717 128.062 23.655L127.572 26H124.807ZM129.462 26L129.497 23.655C130.103 23.7017 130.722 23.7833 131.352 23.9C132.005 23.9933 132.53 24.1333 132.927 24.32L132.717 26H129.462ZM124.667 11.79L124.247 10.145C124.947 9.81833 125.728 9.56167 126.592 9.375C127.478 9.18833 128.283 9.08333 129.007 9.06L129.462 9.935L127.922 11.545L124.667 11.79ZM129.007 5.945C128.563 5.75833 128.073 5.46667 127.537 5.07C127 4.65 126.592 4.24167 126.312 3.845C126.568 3.30833 126.895 2.795 127.292 2.305C127.688 1.79166 128.073 1.41833 128.447 1.185C128.937 1.37167 129.427 1.68667 129.917 2.13C130.43 2.55 130.815 2.935 131.072 3.285C130.908 3.75167 130.617 4.24167 130.197 4.755C129.8 5.26833 129.403 5.665 129.007 5.945ZM151.751 26.665C150.585 26.665 149.406 26.5133 148.216 26.21C147.026 25.9067 145.953 25.51 144.996 25.02L145.626 21.87C146.536 22.3367 147.551 22.745 148.671 23.095C149.791 23.4217 150.911 23.6433 152.031 23.76C153.151 23.8533 154.178 23.795 155.111 23.585C155.555 23.1183 155.881 22.605 156.091 22.045C156.301 21.485 156.406 20.925 156.406 20.365C156.406 19.5717 156.196 18.8367 155.776 18.16C155.356 17.4833 154.715 16.935 153.851 16.515C152.988 16.0717 151.903 15.85 150.596 15.85L148.111 15.955L148.041 13.575H148.181L152.976 13.505H153.466C154.586 13.575 155.601 13.925 156.511 14.555C157.445 15.185 158.18 15.99 158.716 16.97C159.276 17.9267 159.556 18.9533 159.556 20.05C159.556 21.0533 159.288 22.0683 158.751 23.095C158.215 24.0983 157.375 24.95 156.231 25.65C155.088 26.3267 153.595 26.665 151.751 26.665ZM147.551 8.99L145.521 8.955C145.428 8.37167 145.346 7.84667 145.276 7.38C145.23 6.91333 145.206 6.45833 145.206 6.015C145.206 5.54833 145.218 5.02333 145.241 4.44L148.216 4.86L147.551 8.99ZM148.461 15.85L148.181 13.575C149.908 13.575 151.273 13.33 152.276 12.84C153.28 12.35 153.991 11.7317 154.411 10.985C154.831 10.215 155.041 9.45667 155.041 8.71C155.041 7.61333 154.656 6.68 153.886 5.91C153.14 5.14 152.043 4.755 150.596 4.755C149.92 4.755 149.22 4.84833 148.496 5.035C147.796 5.22167 147.143 5.49 146.536 5.84L145.241 4.44C146.105 3.83333 147.108 3.36667 148.251 3.04C149.418 2.71333 150.55 2.55 151.646 2.55C153.116 2.55 154.341 2.83 155.321 3.39C156.325 3.92667 157.083 4.62667 157.596 5.49C158.11 6.35333 158.366 7.26333 158.366 8.22C158.366 9.38667 157.97 10.5067 157.176 11.58C156.383 12.6533 155.158 13.4233 153.501 13.89V14.45L148.461 15.85ZM167.79 26L167.65 22.885C168.467 23.165 169.237 23.375 169.96 23.515C170.684 23.6317 171.372 23.69 172.025 23.69C173.402 23.69 174.592 23.4333 175.595 22.92C176.622 22.4067 177.462 21.7067 178.115 20.82C178.769 19.9333 179.259 18.9417 179.585 17.845C179.912 16.7483 180.075 15.6283 180.075 14.485C180.075 13.0617 179.854 11.7317 179.41 10.495C178.99 9.235 178.419 8.12667 177.695 7.17C176.972 6.21333 176.144 5.50166 175.21 5.035L168.175 5.595L163.065 3.25C164.792 3.15667 166.519 3.08667 168.245 3.04C169.995 2.99333 171.734 2.97 173.46 2.97C175.07 2.97 176.505 3.29666 177.765 3.95C179.025 4.60333 180.099 5.47833 180.985 6.575C181.872 7.67167 182.549 8.90833 183.015 10.285C183.482 11.6383 183.715 13.0383 183.715 14.485C183.715 15.9083 183.494 17.3083 183.05 18.685C182.607 20.0617 181.907 21.2983 180.95 22.395C180.017 23.4917 178.815 24.3667 177.345 25.02C175.875 25.6733 174.114 26 172.06 26H167.79ZM162.75 26L162.54 24.88C163.077 24.6233 163.637 24.4017 164.22 24.215C164.827 24.005 165.422 23.8183 166.005 23.655L166.04 26H162.75ZM165.515 26V3.32H168.77V26H165.515ZM166.39 5.14L163.03 4.93L163.065 3.25H166.32L166.39 5.14Z" fill="#7B29DD"/>
</svg>
